<mxfile host="app.diagrams.net" modified="2021-07-09T00:52:15.132Z" agent="5.0 (Windows NT 10.0; Win64; x64) AppleWebKit/537.36 (KHTML, like Gecko) Chrome/91.0.4472.124 Safari/537.36" etag="5oPScoc-PQQm2RR4o0f_" version="14.8.5" type="github">
  <diagram id="0wtxZ1LOCdNuurvT-JFt" name="Página-1">
    <mxGraphModel dx="3582" dy="2624" grid="1" gridSize="10" guides="1" tooltips="1" connect="1" arrows="1" fold="1" page="1" pageScale="1" pageWidth="827" pageHeight="1169" math="0" shadow="0">
      <root>
        <mxCell id="0" />
        <mxCell id="1" parent="0" />
        <mxCell id="xRK7ADfFjkM7JIY8LleF-5" value="" style="group;fontColor=#ffffff;" parent="1" vertex="1" connectable="0">
          <mxGeometry x="170" y="110" width="210" height="273" as="geometry" />
        </mxCell>
        <mxCell id="xRK7ADfFjkM7JIY8LleF-1" value="" style="verticalLabelPosition=bottom;verticalAlign=top;html=1;shape=mxgraph.basic.smiley;fillColor=#647687;fontColor=#ffffff;strokeColor=#314354;" parent="xRK7ADfFjkM7JIY8LleF-5" vertex="1">
          <mxGeometry width="210" height="210" as="geometry" />
        </mxCell>
        <mxCell id="xRK7ADfFjkM7JIY8LleF-4" value="&lt;font face=&quot;Tahoma&quot;&gt;SUGESTÕES&lt;/font&gt;" style="text;html=1;align=center;verticalAlign=middle;whiteSpace=wrap;rounded=0;fontSize=22;fontStyle=1;fontFamily=Verdana;fontColor=#666666;" parent="xRK7ADfFjkM7JIY8LleF-5" vertex="1">
          <mxGeometry x="42" y="210" width="125.99999999999999" height="62.99999999999999" as="geometry" />
        </mxCell>
        <mxCell id="xRK7ADfFjkM7JIY8LleF-13" value="" style="endArrow=none;html=1;fontFamily=Verdana;fontSize=22;fontColor=#003300;fillColor=#d80073;strokeColor=#A50040;strokeWidth=6;" parent="1" source="xRK7ADfFjkM7JIY8LleF-6" target="xRK7ADfFjkM7JIY8LleF-1" edge="1">
          <mxGeometry width="50" height="50" relative="1" as="geometry">
            <mxPoint x="390" y="330" as="sourcePoint" />
            <mxPoint x="440" y="280" as="targetPoint" />
          </mxGeometry>
        </mxCell>
        <mxCell id="xRK7ADfFjkM7JIY8LleF-15" value="" style="endArrow=none;html=1;fontFamily=Verdana;fontSize=22;fontColor=#003300;fillColor=#d80073;strokeColor=#A50040;strokeWidth=6;" parent="1" source="xRK7ADfFjkM7JIY8LleF-6" target="xRK7ADfFjkM7JIY8LleF-59" edge="1">
          <mxGeometry width="50" height="50" relative="1" as="geometry">
            <mxPoint x="810" y="210" as="sourcePoint" />
            <mxPoint x="1100" y="161.17834394904457" as="targetPoint" />
          </mxGeometry>
        </mxCell>
        <mxCell id="xRK7ADfFjkM7JIY8LleF-25" value="" style="group" parent="1" vertex="1" connectable="0">
          <mxGeometry x="910" y="-40" width="142.5" height="120" as="geometry" />
        </mxCell>
        <mxCell id="xRK7ADfFjkM7JIY8LleF-18" value="" style="shape=cross;whiteSpace=wrap;html=1;strokeColor=#314354;fillColor=#647687;fontFamily=Tahoma;fontSize=22;fontColor=#ffffff;" parent="xRK7ADfFjkM7JIY8LleF-25" vertex="1">
          <mxGeometry x="31.25" width="80" height="80" as="geometry" />
        </mxCell>
        <mxCell id="xRK7ADfFjkM7JIY8LleF-24" value="ADIÇÕES" style="text;html=1;align=center;verticalAlign=middle;whiteSpace=wrap;rounded=0;fontSize=22;fontStyle=1;fontFamily=Tahoma;fontColor=#4D4D4D;" parent="xRK7ADfFjkM7JIY8LleF-25" vertex="1">
          <mxGeometry y="80" width="142.5" height="40" as="geometry" />
        </mxCell>
        <mxCell id="xRK7ADfFjkM7JIY8LleF-26" value="" style="endArrow=none;html=1;fontFamily=Verdana;fontSize=22;fontColor=#003300;fillColor=#d80073;strokeColor=#A50040;strokeWidth=6;" parent="1" source="xRK7ADfFjkM7JIY8LleF-6" target="xRK7ADfFjkM7JIY8LleF-18" edge="1">
          <mxGeometry width="50" height="50" relative="1" as="geometry">
            <mxPoint x="812.5" y="148.60000000000002" as="sourcePoint" />
            <mxPoint x="1080" y="170" as="targetPoint" />
          </mxGeometry>
        </mxCell>
        <mxCell id="xRK7ADfFjkM7JIY8LleF-14" value="" style="group" parent="1" vertex="1" connectable="0">
          <mxGeometry x="680" y="130" width="215" height="170" as="geometry" />
        </mxCell>
        <mxCell id="xRK7ADfFjkM7JIY8LleF-6" value="" style="shape=parallelMarker;direction=south;html=1;outlineConnect=0;fontFamily=Verdana;fontSize=22;fillColor=#647687;strokeColor=#314354;fontColor=#ffffff;" parent="xRK7ADfFjkM7JIY8LleF-14" vertex="1">
          <mxGeometry x="62.5" width="90" height="90" as="geometry" />
        </mxCell>
        <mxCell id="xRK7ADfFjkM7JIY8LleF-9" value="" style="verticalLabelPosition=bottom;verticalAlign=top;html=1;shape=mxgraph.basic.tick;fontFamily=Verdana;fontSize=22;fillColor=#647687;strokeColor=#314354;fontColor=#ffffff;" parent="xRK7ADfFjkM7JIY8LleF-14" vertex="1">
          <mxGeometry x="162.5" y="70" width="26.67" height="20" as="geometry" />
        </mxCell>
        <mxCell id="xRK7ADfFjkM7JIY8LleF-10" value="" style="verticalLabelPosition=bottom;verticalAlign=top;html=1;shape=mxgraph.basic.tick;fontFamily=Verdana;fontSize=22;fillColor=#647687;strokeColor=#314354;fontColor=#ffffff;" parent="xRK7ADfFjkM7JIY8LleF-14" vertex="1">
          <mxGeometry x="162.5" y="35" width="26.67" height="20" as="geometry" />
        </mxCell>
        <mxCell id="xRK7ADfFjkM7JIY8LleF-11" value="" style="verticalLabelPosition=bottom;verticalAlign=top;html=1;shape=mxgraph.basic.tick;fontFamily=Verdana;fontSize=22;fillColor=#647687;strokeColor=#314354;fontColor=#ffffff;" parent="xRK7ADfFjkM7JIY8LleF-14" vertex="1">
          <mxGeometry x="162.5" width="26.67" height="20" as="geometry" />
        </mxCell>
        <mxCell id="xRK7ADfFjkM7JIY8LleF-12" value="DETALHAMENTO&lt;br&gt;DE REQUISITOS" style="text;html=1;align=center;verticalAlign=middle;whiteSpace=wrap;rounded=0;fontSize=22;fontStyle=1;fontFamily=Tahoma;fontColor=#4D4D4D;" parent="xRK7ADfFjkM7JIY8LleF-14" vertex="1">
          <mxGeometry y="100" width="215" height="70" as="geometry" />
        </mxCell>
        <mxCell id="xRK7ADfFjkM7JIY8LleF-27" value="&lt;h1 style=&quot;font-size: 16px&quot;&gt;&lt;font style=&quot;font-size: 16px&quot;&gt;DESCRIÇÃO&lt;/font&gt;&lt;/h1&gt;&lt;p style=&quot;font-size: 16px&quot;&gt;Uma pequena descrição do requisito que detalhe sua funcionalidade através da visão do cliente, descrevendo o objetivo/objeto que o cliente obterá a partir do seu uso.&lt;/p&gt;" style="text;html=1;strokeColor=none;fillColor=none;spacing=5;spacingTop=-20;whiteSpace=wrap;overflow=hidden;rounded=0;fontFamily=Tahoma;fontSize=16;fontColor=#666666;" parent="1" vertex="1">
          <mxGeometry x="1034" y="-380" width="240" height="180" as="geometry" />
        </mxCell>
        <mxCell id="xRK7ADfFjkM7JIY8LleF-28" value="" style="endArrow=none;html=1;fontFamily=Verdana;fontSize=22;fontColor=#003300;fillColor=#d80073;strokeColor=#A50040;strokeWidth=6;" parent="1" source="xRK7ADfFjkM7JIY8LleF-27" target="xRK7ADfFjkM7JIY8LleF-18" edge="1">
          <mxGeometry width="50" height="50" relative="1" as="geometry">
            <mxPoint x="812.5" y="121.05504587155951" as="sourcePoint" />
            <mxPoint x="1000" y="21.284403669724725" as="targetPoint" />
          </mxGeometry>
        </mxCell>
        <mxCell id="xRK7ADfFjkM7JIY8LleF-32" value="" style="shape=flexArrow;endArrow=classic;html=1;strokeColor=#A50040;fillColor=#d80073;fontFamily=Tahoma;fontSize=16;fontColor=#666666;" parent="1" source="xRK7ADfFjkM7JIY8LleF-27" target="xRK7ADfFjkM7JIY8LleF-33" edge="1">
          <mxGeometry width="50" height="50" relative="1" as="geometry">
            <mxPoint x="1134" y="-280" as="sourcePoint" />
            <mxPoint x="1454" y="-306" as="targetPoint" />
          </mxGeometry>
        </mxCell>
        <mxCell id="xRK7ADfFjkM7JIY8LleF-33" value="&lt;ul&gt;&lt;li&gt;Mecanismo de login de usuário&amp;nbsp;&lt;/li&gt;&lt;li&gt;Visualização, Edição, Criação e exclusão de dados de conta de usuário&lt;/li&gt;&lt;/ul&gt;" style="text;strokeColor=none;fillColor=none;html=1;whiteSpace=wrap;verticalAlign=middle;overflow=hidden;fontFamily=Tahoma;fontSize=16;fontColor=#666666;" parent="1" vertex="1">
          <mxGeometry x="1395" y="-570" width="240" height="130" as="geometry" />
        </mxCell>
        <mxCell id="xRK7ADfFjkM7JIY8LleF-34" value="&lt;ul&gt;&lt;li&gt;Visualização, Edição, exclusão e listagem de Produtos.&amp;nbsp;&lt;/li&gt;&lt;/ul&gt;" style="text;strokeColor=none;fillColor=none;html=1;whiteSpace=wrap;verticalAlign=middle;overflow=hidden;fontFamily=Tahoma;fontSize=16;fontColor=#666666;" parent="1" vertex="1">
          <mxGeometry x="1434" y="-440" width="240" height="90" as="geometry" />
        </mxCell>
        <mxCell id="xRK7ADfFjkM7JIY8LleF-35" value="" style="shape=flexArrow;endArrow=classic;html=1;strokeColor=#A50040;fillColor=#d80073;fontFamily=Tahoma;fontSize=16;fontColor=#666666;" parent="1" source="xRK7ADfFjkM7JIY8LleF-27" target="xRK7ADfFjkM7JIY8LleF-34" edge="1">
          <mxGeometry width="50" height="50" relative="1" as="geometry">
            <mxPoint x="1314" y="-356.19335347432025" as="sourcePoint" />
            <mxPoint x="1405" y="-398.80664652567975" as="targetPoint" />
          </mxGeometry>
        </mxCell>
        <mxCell id="xRK7ADfFjkM7JIY8LleF-36" value="" style="shape=flexArrow;endArrow=classic;html=1;strokeColor=#A50040;fillColor=#d80073;fontFamily=Tahoma;fontSize=16;fontColor=#666666;" parent="1" source="xRK7ADfFjkM7JIY8LleF-27" target="xRK7ADfFjkM7JIY8LleF-37" edge="1">
          <mxGeometry width="50" height="50" relative="1" as="geometry">
            <mxPoint x="1314" y="-328.3333333333335" as="sourcePoint" />
            <mxPoint x="1444" y="-280" as="targetPoint" />
          </mxGeometry>
        </mxCell>
        <mxCell id="xRK7ADfFjkM7JIY8LleF-37" value="&lt;ul&gt;&lt;li&gt;Atualização do formulário de cadastro de usuário - adição de foto de usuário no formulário de cadastro&lt;/li&gt;&lt;/ul&gt;" style="text;strokeColor=none;fillColor=none;html=1;whiteSpace=wrap;verticalAlign=middle;overflow=hidden;fontFamily=Tahoma;fontSize=16;fontColor=#666666;" parent="1" vertex="1">
          <mxGeometry x="1444" y="-330" width="230" height="110" as="geometry" />
        </mxCell>
        <mxCell id="xRK7ADfFjkM7JIY8LleF-38" value="" style="endArrow=none;html=1;fontFamily=Verdana;fontSize=22;fontColor=#003300;fillColor=#d80073;strokeColor=#A50040;strokeWidth=6;" parent="1" source="xRK7ADfFjkM7JIY8LleF-39" target="xRK7ADfFjkM7JIY8LleF-27" edge="1">
          <mxGeometry width="50" height="50" relative="1" as="geometry">
            <mxPoint x="1204" y="-550" as="sourcePoint" />
            <mxPoint x="1194" y="-150" as="targetPoint" />
          </mxGeometry>
        </mxCell>
        <mxCell id="xRK7ADfFjkM7JIY8LleF-55" style="edgeStyle=none;orthogonalLoop=1;jettySize=auto;html=1;endArrow=none;strokeColor=#A50040;strokeWidth=6;fillColor=#d80073;fontFamily=Verdana;fontSize=22;fontColor=#003300;" parent="1" source="xRK7ADfFjkM7JIY8LleF-39" target="xRK7ADfFjkM7JIY8LleF-54" edge="1">
          <mxGeometry relative="1" as="geometry" />
        </mxCell>
        <mxCell id="xRK7ADfFjkM7JIY8LleF-39" value="TEMPLATES" style="shape=table;html=1;whiteSpace=wrap;startSize=30;container=1;collapsible=0;childLayout=tableLayout;fixedRows=1;rowLines=0;fontStyle=1;align=center;strokeColor=#314354;fillColor=#647687;fontFamily=Verdana;fontSize=13;fontColor=#ffffff;" parent="1" vertex="1">
          <mxGeometry x="1144" y="-620" width="130" height="120" as="geometry" />
        </mxCell>
        <mxCell id="xRK7ADfFjkM7JIY8LleF-40" value="" style="shape=partialRectangle;html=1;whiteSpace=wrap;collapsible=0;dropTarget=0;pointerEvents=0;fillColor=none;top=0;left=0;bottom=1;right=0;points=[[0,0.5],[1,0.5]];portConstraint=eastwest;" parent="xRK7ADfFjkM7JIY8LleF-39" vertex="1">
          <mxGeometry y="30" width="130" height="30" as="geometry" />
        </mxCell>
        <mxCell id="xRK7ADfFjkM7JIY8LleF-41" value="1" style="shape=partialRectangle;html=1;whiteSpace=wrap;connectable=0;fillColor=none;top=0;left=0;bottom=0;right=0;overflow=hidden;" parent="xRK7ADfFjkM7JIY8LleF-40" vertex="1">
          <mxGeometry width="30" height="30" as="geometry" />
        </mxCell>
        <mxCell id="xRK7ADfFjkM7JIY8LleF-42" value="Value 1" style="shape=partialRectangle;html=1;whiteSpace=wrap;connectable=0;fillColor=none;top=0;left=0;bottom=0;right=0;align=left;spacingLeft=6;overflow=hidden;" parent="xRK7ADfFjkM7JIY8LleF-40" vertex="1">
          <mxGeometry x="30" width="100" height="30" as="geometry" />
        </mxCell>
        <mxCell id="xRK7ADfFjkM7JIY8LleF-43" value="" style="shape=partialRectangle;html=1;whiteSpace=wrap;collapsible=0;dropTarget=0;pointerEvents=0;fillColor=none;top=0;left=0;bottom=0;right=0;points=[[0,0.5],[1,0.5]];portConstraint=eastwest;" parent="xRK7ADfFjkM7JIY8LleF-39" vertex="1">
          <mxGeometry y="60" width="130" height="30" as="geometry" />
        </mxCell>
        <mxCell id="xRK7ADfFjkM7JIY8LleF-44" value="2" style="shape=partialRectangle;html=1;whiteSpace=wrap;connectable=0;fillColor=none;top=0;left=0;bottom=0;right=0;overflow=hidden;" parent="xRK7ADfFjkM7JIY8LleF-43" vertex="1">
          <mxGeometry width="30" height="30" as="geometry" />
        </mxCell>
        <mxCell id="xRK7ADfFjkM7JIY8LleF-45" value="Value 2" style="shape=partialRectangle;html=1;whiteSpace=wrap;connectable=0;fillColor=none;top=0;left=0;bottom=0;right=0;align=left;spacingLeft=6;overflow=hidden;" parent="xRK7ADfFjkM7JIY8LleF-43" vertex="1">
          <mxGeometry x="30" width="100" height="30" as="geometry" />
        </mxCell>
        <mxCell id="xRK7ADfFjkM7JIY8LleF-46" value="" style="shape=partialRectangle;html=1;whiteSpace=wrap;collapsible=0;dropTarget=0;pointerEvents=0;fillColor=none;top=0;left=0;bottom=0;right=0;points=[[0,0.5],[1,0.5]];portConstraint=eastwest;" parent="xRK7ADfFjkM7JIY8LleF-39" vertex="1">
          <mxGeometry y="90" width="130" height="30" as="geometry" />
        </mxCell>
        <mxCell id="xRK7ADfFjkM7JIY8LleF-47" value="3" style="shape=partialRectangle;html=1;whiteSpace=wrap;connectable=0;fillColor=none;top=0;left=0;bottom=0;right=0;overflow=hidden;" parent="xRK7ADfFjkM7JIY8LleF-46" vertex="1">
          <mxGeometry width="30" height="30" as="geometry" />
        </mxCell>
        <mxCell id="xRK7ADfFjkM7JIY8LleF-48" value="Value 3" style="shape=partialRectangle;html=1;whiteSpace=wrap;connectable=0;fillColor=none;top=0;left=0;bottom=0;right=0;align=left;spacingLeft=6;overflow=hidden;" parent="xRK7ADfFjkM7JIY8LleF-46" vertex="1">
          <mxGeometry x="30" width="100" height="30" as="geometry" />
        </mxCell>
        <mxCell id="xRK7ADfFjkM7JIY8LleF-51" style="edgeStyle=none;orthogonalLoop=1;jettySize=auto;html=1;endArrow=none;strokeColor=#A50040;strokeWidth=6;fillColor=#d80073;fontFamily=Verdana;fontSize=22;fontColor=#003300;" parent="1" source="xRK7ADfFjkM7JIY8LleF-50" target="xRK7ADfFjkM7JIY8LleF-39" edge="1">
          <mxGeometry relative="1" as="geometry" />
        </mxCell>
        <mxCell id="xRK7ADfFjkM7JIY8LleF-50" value="&lt;h1 style=&quot;font-size: 16px&quot;&gt;&lt;font style=&quot;font-size: 16px&quot;&gt;&lt;font color=&quot;#6666ff&quot;&gt;MECANISMO DE &lt;/font&gt;(CITAR NOME DO MECANISMO)&amp;nbsp;&lt;/font&gt;&lt;/h1&gt;&lt;p style=&quot;font-size: 16px&quot;&gt;Usar quando não for uma funcionalidade que o cliente possa ver, mas faz interação com ela indiretamente, como comunicações com APIs e funções executadas em segundo plano.&lt;/p&gt;" style="text;html=1;strokeColor=none;fillColor=none;spacing=5;spacingTop=-20;whiteSpace=wrap;overflow=hidden;rounded=0;fontFamily=Tahoma;fontSize=16;fontColor=#666666;align=center;" parent="1" vertex="1">
          <mxGeometry x="714" y="-728" width="410" height="114" as="geometry" />
        </mxCell>
        <mxCell id="xRK7ADfFjkM7JIY8LleF-53" style="edgeStyle=none;orthogonalLoop=1;jettySize=auto;html=1;endArrow=none;strokeColor=#A50040;strokeWidth=6;fillColor=#d80073;fontFamily=Verdana;fontSize=22;fontColor=#003300;" parent="1" source="xRK7ADfFjkM7JIY8LleF-52" target="xRK7ADfFjkM7JIY8LleF-39" edge="1">
          <mxGeometry relative="1" as="geometry" />
        </mxCell>
        <mxCell id="xRK7ADfFjkM7JIY8LleF-52" value="&lt;h1 style=&quot;font-size: 16px&quot;&gt;&lt;font style=&quot;font-size: 16px&quot;&gt;&lt;font color=&quot;#6666ff&quot;&gt;VISUALIZAÇÃO, EDIÇÃO, CRIAÇÃO E EXCLUSÃO&lt;/font&gt; DE (NOME DA TABELA)&amp;nbsp;&lt;/font&gt;&lt;/h1&gt;&lt;p style=&quot;font-size: 16px&quot;&gt;Usar quando se tratar de uma funcionalidade que faz interação direta com os dados de uma tabela dos dados / realiza persistência de dados de uma tabela.&amp;nbsp;&lt;/p&gt;" style="text;html=1;strokeColor=none;fillColor=none;spacing=5;spacingTop=-20;whiteSpace=wrap;overflow=hidden;rounded=0;fontFamily=Tahoma;fontSize=16;fontColor=#666666;align=center;" parent="1" vertex="1">
          <mxGeometry x="1034" y="-860" width="390" height="128" as="geometry" />
        </mxCell>
        <mxCell id="xRK7ADfFjkM7JIY8LleF-54" value="&lt;h1 style=&quot;font-size: 16px&quot;&gt;&lt;font style=&quot;font-size: 16px&quot;&gt;&lt;font color=&quot;#6666ff&quot;&gt;ATUALIZAÇÃO/CORREÇÃO&lt;/font&gt; (NOME DE UM REQUISITO EXISTENTE) - &lt;font color=&quot;#6666ff&quot;&gt;ADIÇÃO/REMOÇÃO/ADEQUAÇÃO/MELHORIA&lt;/font&gt;&amp;nbsp;DE (FUNCIONALIDADE) (ALVO)&lt;/font&gt;&lt;/h1&gt;&lt;p style=&quot;font-size: 16px&quot;&gt;Usar quando se tratar de uma atualização (usar quando, por exigência do cliente se tratar de uma melhoria/atualização no escopo do requisito) ou correção (usar quando se tratar de uma inconformidade com o escopo do produto) e então detalhar brevemente se trata de uma adição (usar quando for adicionar uma funcionalidade), remoção (quando for retirar uma funcionalidade existente) ou adequação (quando for alterar uma funcionalidade existente) seguido do nome da funcionalidade e alvo, que deve detalhar onde no sistema deve ser feito a operação&lt;/p&gt;" style="text;html=1;strokeColor=none;fillColor=none;spacing=5;spacingTop=-20;whiteSpace=wrap;overflow=hidden;rounded=0;fontFamily=Tahoma;fontSize=16;fontColor=#666666;align=center;" parent="1" vertex="1">
          <mxGeometry x="1404" y="-772" width="640" height="202" as="geometry" />
        </mxCell>
        <mxCell id="xRK7ADfFjkM7JIY8LleF-63" value="" style="group" parent="1" vertex="1" connectable="0">
          <mxGeometry x="1039.997325184095" y="140.00409067580244" width="143.45267481590508" height="139.05590932419756" as="geometry" />
        </mxCell>
        <mxCell id="xRK7ADfFjkM7JIY8LleF-61" value="" style="group;rotation=-15;" parent="xRK7ADfFjkM7JIY8LleF-63" vertex="1" connectable="0">
          <mxGeometry x="7.702674815905084" y="14.245909324197555" width="120" height="75.32" as="geometry" />
        </mxCell>
        <mxCell id="xRK7ADfFjkM7JIY8LleF-60" value="" style="line;strokeWidth=24;direction=south;html=1;fillColor=#647687;fontFamily=Verdana;fontSize=22;fontColor=#ffffff;rotation=50;strokeColor=#314354;" parent="xRK7ADfFjkM7JIY8LleF-61" vertex="1">
          <mxGeometry x="42" y="15" width="12.02729059740988" height="75.2081915202054" as="geometry" />
        </mxCell>
        <mxCell id="xRK7ADfFjkM7JIY8LleF-59" value="" style="verticalLabelPosition=bottom;verticalAlign=top;html=1;shape=mxgraph.basic.partConcEllipse;startAngle=0.25;endAngle=0.1;arcWidth=0.5;strokeColor=#314354;fillColor=#647687;fontFamily=Verdana;fontSize=22;fontColor=#ffffff;rotation=-15;" parent="xRK7ADfFjkM7JIY8LleF-61" vertex="1">
          <mxGeometry x="60" y="-13" width="60.13645298704941" height="57.85245501554262" as="geometry" />
        </mxCell>
        <mxCell id="xRK7ADfFjkM7JIY8LleF-62" value="AJUSTES" style="text;html=1;align=center;verticalAlign=middle;whiteSpace=wrap;rounded=0;fontSize=22;fontStyle=1;fontFamily=Tahoma;fontColor=#4D4D4D;" parent="xRK7ADfFjkM7JIY8LleF-63" vertex="1">
          <mxGeometry x="-3.547325184094916" y="99.05590932419756" width="142.5" height="40" as="geometry" />
        </mxCell>
        <mxCell id="xRK7ADfFjkM7JIY8LleF-64" value="&lt;h1 style=&quot;font-size: 16px&quot;&gt;OBSERVAÇÕES GERAIS &amp;gt; CRITÉRIOS DE ACEITAÇÃO&lt;/h1&gt;&lt;p style=&quot;font-size: 16px&quot;&gt;Mudança na nomenclatura mais chamativa e mudança dos itens de uma lista para checkboxes de modo que, isso obrigue que para que o requisito seja considerado completo, a exigência seja saciada.&amp;nbsp;&lt;/p&gt;" style="text;html=1;strokeColor=none;fillColor=none;spacing=5;spacingTop=-20;whiteSpace=wrap;overflow=hidden;rounded=0;fontFamily=Tahoma;fontSize=16;fontColor=#666666;align=center;" parent="1" vertex="1">
          <mxGeometry x="1124" y="-25" width="480" height="120" as="geometry" />
        </mxCell>
        <mxCell id="xRK7ADfFjkM7JIY8LleF-65" style="edgeStyle=none;orthogonalLoop=1;jettySize=auto;html=1;endArrow=none;strokeColor=#A50040;strokeWidth=6;fillColor=#d80073;fontFamily=Verdana;fontSize=22;fontColor=#003300;" parent="1" source="xRK7ADfFjkM7JIY8LleF-59" target="xRK7ADfFjkM7JIY8LleF-64" edge="1">
          <mxGeometry relative="1" as="geometry" />
        </mxCell>
        <mxCell id="xRK7ADfFjkM7JIY8LleF-66" value="" style="shape=image;verticalLabelPosition=bottom;labelBackgroundColor=#ffffff;verticalAlign=top;aspect=fixed;imageAspect=0;image=data:image/png,iVBORw0KGgoAAAANSUhEUgAAAiUAAABNCAYAAAB5VRT1AAAQmUlEQVR4Ae2dS6tlRx3F8y38EH4J5yI4cSQ4ERwpKig46IDgI4hC7HYiaRBpEzCt4iMQo2IkPoIa0JjYdhpNugfXzqCboKA4PLIOrMO6/1t777Pv2Z1bZ9/f4FC1d/3ftapq1b4dfew///3fhh81AANgAAyAATAABi4aA49ddAD4ZxGAATAABsAAGAADwgCkhC9FfCkDA2AADIABMNAFBiAlALELIHJL4pYEBsAAGAADkBJICaQEDIABMAAGwEAXGICUAMQugMgNiRsSGAADYAAMQEogJZASMAAGwAAYAANdYABSAhC7ACI3JG5IYAAMgAEwACmBlEBKwAAYAANgAAx0gYFVk5KXXn518573fmD3e98HP7F5/fabu8Kf3H+w+dBHH9/U98fK1pWbclFOyu2Ja09vVINHkY99jdV3Sb9rm6sla4MtbpdgAAysBQOrJSU6kPPAzP4zP/j59qBe20GnvERCTMZMTpYGq/xkPd1/lORubXO19Jxgj0MJDICBNWCgO1Lyp9fubN7/4c9uDz21ep5b6Dw080uBiYoPTw66+YvYhEdERPXMufnh87859SUqx+jPrzU1o2ZgAAxcNgx0R0pMSHz71vOcSXn4zr83n3782pbU1EPTJES2RVz8LJKiw1ZfFjSWXxjSnmMy0aljqWdidOWJ69t4NHbr9ls7H7bhGGT7Fy+9sovdvpSL/LgG9c8mOW6fQ7rpSzKpW+1mLvad+dbaWibbJDDyp/g07jhU9+tPP7etucaqvHRqnUwoZcck0/nKRsZo3YyJPps8GAADYKBfDHRHSnzAZDsHQD7w8kBLfR9kalM2/anvA9vyOa7DbkjXepUg+JD3e9lVXCYD0nvz3v0daUl/lm0d2vbXijPzsJ+0q770Wrk43qxdyvnAdz6261jre48P1U7yLR2TEPv2c0tW7yAl/W42iSX6zBMYAAMtDHRHSg79UuLDS4egD85M3Id3PYwt68Pbh5/lffjbluTlw+99GFrPh2Y93G3f7y2n1rbdpo9/vv1w9xXFB7/lWjnXd/ZjXY8rjvyC04pjzI/tmnTIvmuRc+BcNG7fGh/yV21YZ6q+jpWWDQ8MgAEwcHwY6I6UHPpvSvIwqweeDzYfhn72QScA13cmET50LVsP46FxkwAvDscnO3/889+2RMM27du23OZXFMvanlrHaKKjd/YjGyIEisP2srVOzcdkK/2kzZqX9SvpSF/q53jNxTaqjuJ3bazj55SVXMZL//g2JOaMOQMDlxsD3ZGSJQCZh1seVD6YfRDnwWY5tTroLON48kDWgf3tZ58/9aXEcm4dQz28Ne6xa9e/v/VjAuD3jsXPGs8vJXpvP/rHpflnH+vW3Jx7Kx7bUmuCoxqkH8s4pjru97JffVvXrcdNMPTe71wLP8uPcvJz6tiec6tz5nHay73JMf/MPxg4HgyskpQkgdChVn+tg7vK+PD2gZfj9eDNMR/keUjXBZEHv3Qdj3XSnvo+qFvjHmvFmbrVp33kge93bh1Xxj9VW9etFatJQ4tg+J19Z5sxmpS07Ffy1oo/c6F/PBsVc8VcgYHLgYFVkhKDtx5cPhQ97oNQB52+OKjVYeiDXnL1sM8x6+cBKp/Ss28f0vapNg/2jCntyc8Lv/rDmXh00Ka/tG+fHs8x+W0RkzzwrafWeWTc2a++pJO1kWyVca7O0wTDdlNeucue7GaM1klZydh21hZScjk2MeOHlvkGA8ePgVWTkrUCVIetD+G15khex7+5MIfMIRgAA3MxACk5wv+/A5GS/Dowd9KRZ6MAA2AADICBHjEAKTlCUiIgiZj4Txk9AouY2PDAABgAA2BgLgYgJUdISvzvKeq/GZk7+cizYYABMAAGwEBPGICUHCEp6QlAxMKGBgbAABgAA0thAFICKdn9b54sBSrssEGBATAABsDAeTAAKYGUQErAABgAA2AADHSBAUgJQOwCiOdh1OhwEwMDYAAMrAsDkBJICaQEDIABMAAGwEAXGICUAMQugMhtZ123HeaT+QQDYOA8GICUQEogJWAADIABMAAGusAApAQgdgHE8zBqdLiJgQEwAAbWhQFICaQEUgIGwAAYAANgoAsMQEoAYhdA5LazrtsO88l8ggEwcB4MQEogJZASMAAGwAAYAANdYABSAhC7AOJ5GDU63MTAABgAA+vCAKQEUgIpAQNgAAyAATDQBQYuPSm5dedeFxMB218X22c+mU8wAAbAwHwMQEogJZAybkhgAAyAATDQBQYgJZCSLoDIjWL+jYKaUTMwAAbWhgFICaQEUsINCQyAATAABrrAAKQEUtIFENfG9smHGywYAANgYD4GICUdk5LXb7+1+dhnvrr5yMe/uP2pr3ePEuhXr39vo9+QD/n/3Be+uTm5/2BQZkiX9/MX6FjNNE/P/vjF1c6DMCasnRfzU1geq22OeR3+9vev7Wqtuo+tk9Tfp7+EPdn4/Ne+tXn4zr92ce7j2zJL1StzUe0+eeXquedQNf/UlavsN5foKw6k5BGQkl+//JfNd3/0y41aL/i5rRZ2JSFa4M/97Hfntjk3hpa8YoCULEsuWnXe5x2kZHoetI7026eeLRkd8KpzJeF58Lb05r471F5P6/LQXGrtlrZX7fM8vY7ezRpBShYmJU8+dXPz5a9/Z7sRfunJGxs9z53Qnm8HPW1+c+u6NnlIyX6b6d/vnsxeg8bKP+6ebPTzs9ulD8pD7fWEhUNzcY3dsufsh3PX69hbSMmCpERfRkREEhQiKHO/mOy7wWjx+087avVs394YZMsyOa6Fnn8a8qdp69mOboj6fGobN27+9NSXkjqePtT/yjee2X5S9lcf+bGtVsxV3nG4HdO3jNvMPT9rD8WsW7Hk9DXKOcuG3yte52Ef1Vb6cS0zjqzPmK7tZytd105+VKu0l7Wpcaad6ndfG6kn+6qTv5pprP6pRfG4Hq5h1rbGaBnn+NSNn5yymf4lY9uZm/tZC8lmjpZxm3XNPxWM2ZCO5jV19WybU7GmbflUrmP6GZd9uG3VPuNK3Vrj9OmcbFdjnot9a11zqbFl3nVehvYkxyxdx0a7XqICKVmQlOhPNlrYuWD0rPf5bqy/7wKU3dxsvAl64Wpci97Pan0IVB/S/esbd7cxSs8bVbVpPfut43rOg0m27NM537j5wu5TuGKyLY235K3ndkzfMmplOzfSV159Y0suxmIeyi9zUG1cH/txjavtsTmY0s1c1JetzEc+c1Ovtaz5pz3FL3t6p5xVG/XHbNTcWrXKubc9x1zlNa446rjj8njWXvHpp7Eaj97lb1+c1Fu41oFsy9aYDc+t43V+fh6LtdbZh7Fx5dxsS7Go71plnurXHOqzc6ox+tk1lQ/HoHfpz+un+t4nl8TFUE1rLKqB9yT5TMzWGHg+jf1jrwekZEFSoi8i+jKSoNCXkzlfSuriTFvuD8nkppJ96aWO+5KxTbepVzcmyeSG1xqXvu2mLdvPVhtPblhT8qmrftXP8bpZemwsZtdFMpbXZuiNWu9a+pZVm5tnzadlf0g33w/ppa/sS1c6+pKi+Upb6ktWv9Z7z1210co7sdCai9Rp5ZD62XdcLZseU1tzzrHsj9mR333+IWa1UedW/jLf9K9+xpp9y6W9lp3q33pqlYPmWjX2cyunVo3ly1ioMeSFIf1lfyqXsbhzzPhI/KWfjC3f018XIdF8QkoWJCUqqP4NiYiIFpEIynn+TUlroefiy8Wc73Mzq4vYi14y0vGzbtvelPQ+9bJvP7mxaVz69Wd7Q/q6/Vonb8Iteft1K/9D+pZxq1zlp/qw72wVs2viGsmOYtIvbeYN0jppy/I1H8vavp9buvandmi+jZOWHdu0r7SnvnQl41ymbNRcZCOx0IpRvqv9jCf1U9axVputGF1r67idg5OUrfENYW2oHiYHQ7H6ffpRzGkv+85nSE/jit9+Ld/KST6Ni2w9R9Wv5XP92L7aoZjSTp3DjEsxpG3b03vvIfaXNv2Odn2ERHMKKVmYlKio+jJyyH99o83AG0Vr4Xnx1o1Nz17MdREP6ci+dFp6rTj0zjeo9NeKs8agDUlfRrRRSb5uWFW+2pzSr/J+lp5vjmMxt2qkmPSzraxJS151tHzNJ+Wzb9up63dqW7J+Z1/SVWypt09f+sbamI2Us135MxbqXEpmqlY5n9m3/Zw355s5DtWr2mrFZh/ZSk75yMeUjTq3me/J2w+2NR2KtRW33umXdpSz41N/6MtXjdU6amtOlbykbCsnjec8pLz6U7lk7WucOday63poTLHpV+V4Xh8xgZQ8AlJy6ELxBuwN3/a0qP2fBGuB5nhuPpKvG4xtaqOUrP62a7spm335003Gm6tt2G/1aXtu05beyY4PQD/nTanK247bKX3LqVWdFL/6ufmNxez8nK90FZN+tp0xpF37UW0sX/NJ+1O69udWG3StnW6U9qW4PC/WabWKQf9YWa3GM58xG1NYcG6Ox3V2zB6XD8clmyaplre+ZJSz8TGnXpmTc7Qd+3YrWceUMU7ZUJxp0/FLbypW6eZcubY+hG0ra6G+a+nY3VZ/Qzk5v7RrG2r13jEMrZ+Ut85ULv4T7VhNlcPQnuS4pe/+UA41Pp6Pj7RASjokJV5IWnj5mTUXvzeEHNeiTV1vMHrnxZwL27q52eXGJD1vmJLVJqzNygdJHbeMdDRWbTmG9OsNqyWvd/mb0k9Z5Wk/arM2mVPGbPspqxz0s22N1XrZj+ZHY5Yfyt/2NT6ka3/Zaj4tr75+9iW5tCe5jHPIzhSm0obitv8pLMiusGL9Vm01D4klH8b2YawlnjxWa5352ZdlFUPiLGUrFlzPKRuS01cH2bYf69a5aMWacyUbIoq5XmstXMeMPfuJhaGcJF/tKvbEo2PIuU6Z9On+WC7y59qP1bQ1pneOWfnLluWy1o6D9vR+eaz1gJR0TEqOFVTEvY7NYWoedXBNHZZTNhhfBiuV4K2priIgJktryotc2tiHlEBKdl8BWCTtRUJdztbFN25urGdrc1F40VysjSSK+NaveRdVX/y+O1iHlEBKICXlz0RsPmc3H5MQ/6lCLYTkbJ3ADjUBA4dhAFICKYGUQErAABgAA2CgCwxASiAlXQCR28VhtwvqR/3AABhYAwYuPSlZwySSA5sRGAADYAAMrAEDkBI+2fGlBAyAATAABsBAFxiAlADELoC4BoZPDtxUwQAYAAOHYQBSAimBlIABMAAGwAAY6AIDkBKA2AUQuV0cdrugftQPDICBNWAAUgIpgZSAATAABsAAGOgCA5ASgNgFENfA8MmBmyoYAANg4DAMQEogJZASMAAGwAAYAANdYABSAhC7ACK3i8NuF9SP+oEBMLAGDEBKICWQEjAABsAAGAADXWAAUgIQuwDiGhg+OXBTBQNgAAwchgFICaQEUgIGwAAYAANgoAsMQEoAYhdA5HZx2O2C+lE/MAAG1oABSAmkBFICBsAAGAADYKALDEBKAGIXQFwDwycHbqpgAAyAgcMwACmBlEBKwAAYAANgAAx0gYELISW37tzb8KMGYAAMgAEwAAYuFwamviRdCCmZCorxwz5/UT/qBwbAABgAA8eIAUgJn+y6+GR3jIuHmNn0wQAYAAPLYgBSAimBlIABMAAGwAAY6AIDkBKA2AUQuW0se9ugntQTDICBY8TA/wGCBau66Cg70AAAAABJRU5ErkJggg==;" parent="1" vertex="1">
          <mxGeometry x="1820" y="-3.5" width="549" height="77" as="geometry" />
        </mxCell>
        <mxCell id="xRK7ADfFjkM7JIY8LleF-69" value="estado atual" style="endArrow=classic;html=1;strokeColor=#A50040;strokeWidth=6;fillColor=#d80073;fontFamily=Verdana;fontSize=22;fontColor=#FF0080;" parent="1" source="xRK7ADfFjkM7JIY8LleF-64" target="xRK7ADfFjkM7JIY8LleF-66" edge="1">
          <mxGeometry x="-0.0421" y="24" width="50" height="50" relative="1" as="geometry">
            <mxPoint x="1750" y="20" as="sourcePoint" />
            <mxPoint x="1800" y="-30" as="targetPoint" />
            <mxPoint as="offset" />
          </mxGeometry>
        </mxCell>
        <mxCell id="xRK7ADfFjkM7JIY8LleF-70" value="sugerido" style="endArrow=classic;html=1;strokeColor=#A50040;strokeWidth=6;fillColor=#d80073;fontFamily=Verdana;fontSize=22;fontColor=#FF0080;" parent="1" source="xRK7ADfFjkM7JIY8LleF-66" target="T6KQ2ea3Ygig5Y7dYEfh-8" edge="1">
          <mxGeometry x="-0.0525" y="20" width="50" height="50" relative="1" as="geometry">
            <mxPoint x="1750" y="20" as="sourcePoint" />
            <mxPoint x="2600" y="29" as="targetPoint" />
            <mxPoint as="offset" />
          </mxGeometry>
        </mxCell>
        <mxCell id="xRK7ADfFjkM7JIY8LleF-73" style="edgeStyle=none;orthogonalLoop=1;jettySize=auto;html=1;endArrow=none;strokeColor=#A50040;strokeWidth=6;fillColor=#d80073;fontFamily=Verdana;fontSize=13;fontColor=#FF0080;" parent="1" source="xRK7ADfFjkM7JIY8LleF-18" target="xRK7ADfFjkM7JIY8LleF-74" edge="1">
          <mxGeometry relative="1" as="geometry">
            <mxPoint x="760" y="-110" as="targetPoint" />
          </mxGeometry>
        </mxCell>
        <mxCell id="xRK7ADfFjkM7JIY8LleF-85" style="edgeStyle=none;orthogonalLoop=1;jettySize=auto;html=1;endArrow=none;strokeColor=#A50040;strokeWidth=6;fillColor=#d80073;fontFamily=Verdana;fontSize=13;fontColor=#FF0080;" parent="1" source="xRK7ADfFjkM7JIY8LleF-74" target="xRK7ADfFjkM7JIY8LleF-75" edge="1">
          <mxGeometry relative="1" as="geometry" />
        </mxCell>
        <mxCell id="xRK7ADfFjkM7JIY8LleF-74" value="&lt;h1 style=&quot;font-size: 16px&quot;&gt;DETALHAMENTO DE TEMPLATE&lt;/h1&gt;&lt;p style=&quot;font-size: 16px&quot;&gt;Descrição do tipo de informação e do objetivo de cada campo do template&lt;/p&gt;" style="text;html=1;strokeColor=none;fillColor=none;spacing=5;spacingTop=-20;whiteSpace=wrap;overflow=hidden;rounded=0;fontFamily=Tahoma;fontSize=16;fontColor=#666666;" parent="1" vertex="1">
          <mxGeometry x="620" y="-150" width="240" height="130" as="geometry" />
        </mxCell>
        <mxCell id="xRK7ADfFjkM7JIY8LleF-87" style="edgeStyle=none;orthogonalLoop=1;jettySize=auto;html=1;endArrow=none;strokeColor=#A50040;strokeWidth=6;fillColor=#d80073;fontFamily=Verdana;fontSize=13;fontColor=#FF0080;" parent="1" source="xRK7ADfFjkM7JIY8LleF-75" target="xRK7ADfFjkM7JIY8LleF-86" edge="1">
          <mxGeometry relative="1" as="geometry" />
        </mxCell>
        <mxCell id="xRK7ADfFjkM7JIY8LleF-75" value="TEMPLATES" style="shape=table;html=1;whiteSpace=wrap;startSize=30;container=1;collapsible=0;childLayout=tableLayout;fixedRows=1;rowLines=0;fontStyle=1;align=center;strokeColor=#314354;fillColor=#647687;fontFamily=Verdana;fontSize=13;fontColor=#ffffff;" parent="1" vertex="1">
          <mxGeometry x="440" y="-145" width="130" height="120" as="geometry" />
        </mxCell>
        <mxCell id="xRK7ADfFjkM7JIY8LleF-76" value="" style="shape=partialRectangle;html=1;whiteSpace=wrap;collapsible=0;dropTarget=0;pointerEvents=0;fillColor=none;top=0;left=0;bottom=1;right=0;points=[[0,0.5],[1,0.5]];portConstraint=eastwest;" parent="xRK7ADfFjkM7JIY8LleF-75" vertex="1">
          <mxGeometry y="30" width="130" height="30" as="geometry" />
        </mxCell>
        <mxCell id="xRK7ADfFjkM7JIY8LleF-77" value="1" style="shape=partialRectangle;html=1;whiteSpace=wrap;connectable=0;fillColor=none;top=0;left=0;bottom=0;right=0;overflow=hidden;" parent="xRK7ADfFjkM7JIY8LleF-76" vertex="1">
          <mxGeometry width="30" height="30" as="geometry" />
        </mxCell>
        <mxCell id="xRK7ADfFjkM7JIY8LleF-78" value="Value 1" style="shape=partialRectangle;html=1;whiteSpace=wrap;connectable=0;fillColor=none;top=0;left=0;bottom=0;right=0;align=left;spacingLeft=6;overflow=hidden;" parent="xRK7ADfFjkM7JIY8LleF-76" vertex="1">
          <mxGeometry x="30" width="100" height="30" as="geometry" />
        </mxCell>
        <mxCell id="xRK7ADfFjkM7JIY8LleF-79" value="" style="shape=partialRectangle;html=1;whiteSpace=wrap;collapsible=0;dropTarget=0;pointerEvents=0;fillColor=none;top=0;left=0;bottom=0;right=0;points=[[0,0.5],[1,0.5]];portConstraint=eastwest;" parent="xRK7ADfFjkM7JIY8LleF-75" vertex="1">
          <mxGeometry y="60" width="130" height="30" as="geometry" />
        </mxCell>
        <mxCell id="xRK7ADfFjkM7JIY8LleF-80" value="2" style="shape=partialRectangle;html=1;whiteSpace=wrap;connectable=0;fillColor=none;top=0;left=0;bottom=0;right=0;overflow=hidden;" parent="xRK7ADfFjkM7JIY8LleF-79" vertex="1">
          <mxGeometry width="30" height="30" as="geometry" />
        </mxCell>
        <mxCell id="xRK7ADfFjkM7JIY8LleF-81" value="Value 2" style="shape=partialRectangle;html=1;whiteSpace=wrap;connectable=0;fillColor=none;top=0;left=0;bottom=0;right=0;align=left;spacingLeft=6;overflow=hidden;" parent="xRK7ADfFjkM7JIY8LleF-79" vertex="1">
          <mxGeometry x="30" width="100" height="30" as="geometry" />
        </mxCell>
        <mxCell id="xRK7ADfFjkM7JIY8LleF-82" value="" style="shape=partialRectangle;html=1;whiteSpace=wrap;collapsible=0;dropTarget=0;pointerEvents=0;fillColor=none;top=0;left=0;bottom=0;right=0;points=[[0,0.5],[1,0.5]];portConstraint=eastwest;" parent="xRK7ADfFjkM7JIY8LleF-75" vertex="1">
          <mxGeometry y="90" width="130" height="30" as="geometry" />
        </mxCell>
        <mxCell id="xRK7ADfFjkM7JIY8LleF-83" value="3" style="shape=partialRectangle;html=1;whiteSpace=wrap;connectable=0;fillColor=none;top=0;left=0;bottom=0;right=0;overflow=hidden;" parent="xRK7ADfFjkM7JIY8LleF-82" vertex="1">
          <mxGeometry width="30" height="30" as="geometry" />
        </mxCell>
        <mxCell id="xRK7ADfFjkM7JIY8LleF-84" value="Value 3" style="shape=partialRectangle;html=1;whiteSpace=wrap;connectable=0;fillColor=none;top=0;left=0;bottom=0;right=0;align=left;spacingLeft=6;overflow=hidden;" parent="xRK7ADfFjkM7JIY8LleF-82" vertex="1">
          <mxGeometry x="30" width="100" height="30" as="geometry" />
        </mxCell>
        <mxCell id="xRK7ADfFjkM7JIY8LleF-86" value="&lt;h1 style=&quot;font-size: 16px&quot;&gt;&lt;font style=&quot;font-size: 16px&quot;&gt;&lt;font color=&quot;#6666ff&quot;&gt;CHECKLIST/DESCRIÇÃO/LISTA/ARQUIVOS&lt;/font&gt; PARA (OBJETIVO)&amp;nbsp;&lt;/font&gt;&lt;/h1&gt;&lt;p style=&quot;font-size: 16px&quot;&gt;Alguns dos exemplos de tipos de dados possíveis como Chelists, Descrições (associado a campos de textos com um ou mais parágrafos), lista (campos precedidos por um símbolo, ou arquivos, sendo o objetivo, a finalidade do campo, o que ele deve informar. ex: Arquivos auxiliares de desenvolvimento.&amp;nbsp;&amp;nbsp;&lt;/p&gt;" style="text;html=1;strokeColor=none;fillColor=none;spacing=5;spacingTop=-20;whiteSpace=wrap;overflow=hidden;rounded=0;fontFamily=Tahoma;fontSize=16;fontColor=#666666;align=center;" parent="1" vertex="1">
          <mxGeometry x="10" y="-270" width="390" height="190" as="geometry" />
        </mxCell>
        <mxCell id="xRK7ADfFjkM7JIY8LleF-89" style="edgeStyle=none;orthogonalLoop=1;jettySize=auto;html=1;endArrow=none;strokeColor=#A50040;strokeWidth=6;fillColor=#d80073;fontFamily=Verdana;fontSize=13;fontColor=#FF0080;" parent="1" source="xRK7ADfFjkM7JIY8LleF-1" target="xRK7ADfFjkM7JIY8LleF-58" edge="1">
          <mxGeometry relative="1" as="geometry" />
        </mxCell>
        <mxCell id="xRK7ADfFjkM7JIY8LleF-91" value="" style="group" parent="1" vertex="1" connectable="0">
          <mxGeometry x="620" y="330" width="215" height="200" as="geometry" />
        </mxCell>
        <mxCell id="xRK7ADfFjkM7JIY8LleF-58" value="" style="shape=mxgraph.bpmn.loop;html=1;outlineConnect=0;strokeColor=#314354;fillColor=#647687;fontFamily=Verdana;fontSize=22;fontColor=#ffffff;" parent="xRK7ADfFjkM7JIY8LleF-91" vertex="1">
          <mxGeometry x="40.5" width="134" height="120" as="geometry" />
        </mxCell>
        <mxCell id="xRK7ADfFjkM7JIY8LleF-90" value="FLUXO DE TRABALHO" style="text;html=1;align=center;verticalAlign=middle;whiteSpace=wrap;rounded=0;fontSize=22;fontStyle=1;fontFamily=Tahoma;fontColor=#4D4D4D;" parent="xRK7ADfFjkM7JIY8LleF-91" vertex="1">
          <mxGeometry y="130" width="215" height="70" as="geometry" />
        </mxCell>
        <mxCell id="xRK7ADfFjkM7JIY8LleF-100" style="edgeStyle=none;orthogonalLoop=1;jettySize=auto;html=1;endArrow=none;strokeColor=#A50040;strokeWidth=6;fillColor=#d80073;fontFamily=Courier New;fontSize=27;fontColor=#990099;" parent="1" source="xRK7ADfFjkM7JIY8LleF-92" target="xRK7ADfFjkM7JIY8LleF-99" edge="1">
          <mxGeometry relative="1" as="geometry" />
        </mxCell>
        <mxCell id="xRK7ADfFjkM7JIY8LleF-103" style="edgeStyle=none;orthogonalLoop=1;jettySize=auto;html=1;endArrow=none;strokeColor=#A50040;strokeWidth=6;fillColor=#d80073;fontFamily=Courier New;fontSize=25;fontColor=#FF00FF;" parent="1" source="xRK7ADfFjkM7JIY8LleF-92" target="xRK7ADfFjkM7JIY8LleF-101" edge="1">
          <mxGeometry relative="1" as="geometry" />
        </mxCell>
        <mxCell id="xRK7ADfFjkM7JIY8LleF-92" value="REUNIÃO DIÁRIA&amp;nbsp;" style="rounded=1;whiteSpace=wrap;html=1;strokeWidth=2;fillWeight=4;hachureGap=8;hachureAngle=45;sketch=1;fontFamily=Comic Sans MS;fontSize=38;align=center;fontStyle=1;labelBackgroundColor=none;labelBorderColor=none;fillColor=#B3E5FF;strokeColor=#3333FF;fontColor=#FF5757;" parent="1" vertex="1">
          <mxGeometry x="1210.28" y="571.5" width="277.45" height="117" as="geometry" />
        </mxCell>
        <mxCell id="xRK7ADfFjkM7JIY8LleF-95" style="edgeStyle=none;orthogonalLoop=1;jettySize=auto;html=1;endArrow=none;strokeColor=#A50040;strokeWidth=6;fillColor=#d80073;fontFamily=Verdana;fontSize=13;fontColor=#FF0080;" parent="1" source="xRK7ADfFjkM7JIY8LleF-58" target="xRK7ADfFjkM7JIY8LleF-93" edge="1">
          <mxGeometry relative="1" as="geometry" />
        </mxCell>
        <mxCell id="xRK7ADfFjkM7JIY8LleF-97" value="" style="group" parent="1" vertex="1" connectable="0">
          <mxGeometry x="870" y="550" width="192.5" height="160" as="geometry" />
        </mxCell>
        <mxCell id="xRK7ADfFjkM7JIY8LleF-93" value="" style="ellipse;whiteSpace=wrap;html=1;strokeWidth=2;fillWeight=2;hachureGap=8;fillStyle=dots;sketch=1;fontFamily=Verdana;fontSize=13;align=center;strokeColor=#003300;fillColor=#80FF00;" parent="xRK7ADfFjkM7JIY8LleF-97" vertex="1">
          <mxGeometry x="15.197368421052632" width="162.10526315789474" height="80" as="geometry" />
        </mxCell>
        <mxCell id="xRK7ADfFjkM7JIY8LleF-96" value="INÍCIO DO DIA" style="text;html=1;align=center;verticalAlign=middle;whiteSpace=wrap;rounded=0;fontSize=27;fontStyle=1;fontFamily=Tahoma;fontColor=#4D4D4D;" parent="xRK7ADfFjkM7JIY8LleF-97" vertex="1">
          <mxGeometry y="91.42857142857142" width="192.5" height="68.57142857142857" as="geometry" />
        </mxCell>
        <mxCell id="xRK7ADfFjkM7JIY8LleF-98" value="" style="endArrow=open;endFill=1;endSize=12;html=1;strokeColor=#A50040;strokeWidth=6;fillColor=#d80073;fontFamily=Courier New;fontSize=38;fontColor=#990099;" parent="1" source="xRK7ADfFjkM7JIY8LleF-93" target="xRK7ADfFjkM7JIY8LleF-92" edge="1">
          <mxGeometry width="160" relative="1" as="geometry">
            <mxPoint x="1060" y="450" as="sourcePoint" />
            <mxPoint x="1220" y="450" as="targetPoint" />
          </mxGeometry>
        </mxCell>
        <mxCell id="xRK7ADfFjkM7JIY8LleF-99" value="&lt;h1 style=&quot;font-size: 18px;&quot;&gt;&lt;font color=&quot;#3333ff&quot; style=&quot;font-size: 18px;&quot;&gt;OBJETIVO&lt;/font&gt;&lt;/h1&gt;&lt;p style=&quot;font-size: 18px;&quot;&gt;&lt;font color=&quot;#6666ff&quot; style=&quot;font-size: 18px;&quot;&gt;Reuniões diárias curtas de no máximo 40 minutos reservadas a atribuir tarefas, checar impedimentos e relatar dificuldades de desenvolvimento&lt;/font&gt;&lt;/p&gt;" style="text;html=1;strokeColor=none;fillColor=none;spacing=5;spacingTop=-20;whiteSpace=wrap;overflow=hidden;rounded=0;fontFamily=Courier New;fontSize=18;fontColor=#990099;align=center;" parent="1" vertex="1">
          <mxGeometry x="1114.58" y="390" width="466" height="140" as="geometry" />
        </mxCell>
        <mxCell id="xRK7ADfFjkM7JIY8LleF-101" value="&lt;h1 style=&quot;font-size: 27px&quot;&gt;&lt;font style=&quot;font-size: 27px&quot;&gt;COMO?&lt;/font&gt;&lt;/h1&gt;&lt;p style=&quot;font-size: 27px&quot;&gt;&lt;font&gt;Detalhar meios&lt;/font&gt;&lt;/p&gt;" style="text;html=1;strokeColor=none;fillColor=none;spacing=5;spacingTop=-20;whiteSpace=wrap;overflow=hidden;rounded=0;fontFamily=Courier New;fontSize=27;align=center;fontColor=#666600;" parent="1" vertex="1">
          <mxGeometry x="1580" y="568.5" width="320" height="120" as="geometry" />
        </mxCell>
        <mxCell id="xRK7ADfFjkM7JIY8LleF-107" value="SIM" style="edgeStyle=none;orthogonalLoop=1;jettySize=auto;html=1;endArrow=open;endFill=1;endSize=12;strokeWidth=6;fillColor=#d80073;fontFamily=Courier New;fontSize=38;fontColor=#990099;strokeColor=#FF7AA7;" parent="1" source="xRK7ADfFjkM7JIY8LleF-105" target="T6KQ2ea3Ygig5Y7dYEfh-13" edge="1">
          <mxGeometry relative="1" as="geometry">
            <mxPoint x="1347.5950000000003" y="1260" as="targetPoint" />
          </mxGeometry>
        </mxCell>
        <mxCell id="xRK7ADfFjkM7JIY8LleF-105" value="Nova Tarefa?" style="rhombus;whiteSpace=wrap;html=1;strokeWidth=2;fillWeight=-1;hachureGap=8;fillStyle=cross-hatch;sketch=1;fontFamily=Comic Sans MS;fontSize=38;fontStyle=1;strokeColor=#006600;fillColor=#80FF00;fontColor=#CC6600;" parent="1" vertex="1">
          <mxGeometry x="1163.6999999999998" y="770" width="367.79" height="230" as="geometry" />
        </mxCell>
        <mxCell id="xRK7ADfFjkM7JIY8LleF-106" value="" style="endArrow=open;endFill=1;endSize=12;html=1;strokeColor=#A50040;strokeWidth=6;fillColor=#d80073;fontFamily=Courier New;fontSize=38;fontColor=#990099;" parent="1" source="xRK7ADfFjkM7JIY8LleF-92" target="xRK7ADfFjkM7JIY8LleF-105" edge="1">
          <mxGeometry width="160" relative="1" as="geometry">
            <mxPoint x="1061.215459408943" y="596.187434839781" as="sourcePoint" />
            <mxPoint x="1203.4499999999998" y="600.6743559521806" as="targetPoint" />
          </mxGeometry>
        </mxCell>
        <mxCell id="xRK7ADfFjkM7JIY8LleF-125" style="edgeStyle=none;orthogonalLoop=1;jettySize=auto;html=1;endArrow=open;endFill=1;endSize=12;strokeWidth=6;fillColor=#d80073;fontFamily=Courier New;fontSize=24;fontColor=#CC0000;strokeColor=#FF7AA7;" parent="1" source="xRK7ADfFjkM7JIY8LleF-123" target="T6KQ2ea3Ygig5Y7dYEfh-13" edge="1">
          <mxGeometry relative="1" as="geometry">
            <mxPoint x="1960" y="1240" as="targetPoint" />
            <Array as="points">
              <mxPoint x="1951" y="1305" />
            </Array>
          </mxGeometry>
        </mxCell>
        <mxCell id="xRK7ADfFjkM7JIY8LleF-123" value="Realizar pull da master do projeto" style="rounded=1;whiteSpace=wrap;html=1;strokeWidth=2;fillWeight=4;hachureGap=8;hachureAngle=45;sketch=1;fontFamily=Comic Sans MS;fontSize=28;align=center;fontStyle=1;labelBackgroundColor=none;labelBorderColor=none;fillColor=#B3E5FF;strokeColor=#3333FF;fontColor=#FF5757;" parent="1" vertex="1">
          <mxGeometry x="1680" y="850" width="544.27" height="70" as="geometry" />
        </mxCell>
        <mxCell id="xRK7ADfFjkM7JIY8LleF-129" value="&lt;h1 style=&quot;font-size: 25px;&quot;&gt;&lt;font color=&quot;#3333ff&quot; style=&quot;font-size: 25px;&quot;&gt;OBJETIVO&lt;/font&gt;&lt;/h1&gt;&lt;p style=&quot;font-size: 25px;&quot;&gt;&lt;font color=&quot;#6666ff&quot; style=&quot;font-size: 25px;&quot;&gt;Reuniões diárias curtas de no máximo 40 minutos reservadas a atribuir tarefas, checar impedimentos e relatar dificuldades de desenvolvimento&lt;/font&gt;&lt;/p&gt;" style="text;html=1;strokeColor=none;fillColor=none;spacing=5;spacingTop=-20;whiteSpace=wrap;overflow=hidden;rounded=0;fontFamily=Courier New;fontSize=25;fontColor=#990099;align=center;" parent="1" vertex="1">
          <mxGeometry x="2481" y="780" width="610" height="210" as="geometry" />
        </mxCell>
        <mxCell id="xRK7ADfFjkM7JIY8LleF-130" style="edgeStyle=none;orthogonalLoop=1;jettySize=auto;html=1;endArrow=none;strokeWidth=6;fillColor=#d80073;fontFamily=Courier New;fontSize=27;fontColor=#990099;strokeColor=#FF7AA7;" parent="1" source="xRK7ADfFjkM7JIY8LleF-123" target="xRK7ADfFjkM7JIY8LleF-129" edge="1">
          <mxGeometry relative="1" as="geometry">
            <mxPoint x="1358.0065909090908" y="540" as="sourcePoint" />
            <mxPoint x="1358.3270454545454" y="490" as="targetPoint" />
          </mxGeometry>
        </mxCell>
        <mxCell id="xRK7ADfFjkM7JIY8LleF-133" value="&lt;h1 style=&quot;font-size: 27px&quot;&gt;&lt;font style=&quot;font-size: 27px&quot;&gt;COMO?&lt;/font&gt;&lt;/h1&gt;&lt;p style=&quot;font-size: 27px&quot;&gt;&lt;font&gt;EXECUTAR COMANDO: git pull origin (master do projeto)&lt;/font&gt;&lt;/p&gt;" style="text;html=1;strokeColor=none;fillColor=none;spacing=5;spacingTop=-20;whiteSpace=wrap;overflow=hidden;rounded=0;fontFamily=Courier New;fontSize=27;align=center;fontColor=#666600;" parent="1" vertex="1">
          <mxGeometry x="2190" y="1010" width="610" height="140" as="geometry" />
        </mxCell>
        <mxCell id="xRK7ADfFjkM7JIY8LleF-134" style="edgeStyle=none;orthogonalLoop=1;jettySize=auto;html=1;endArrow=none;strokeWidth=6;fillColor=#d80073;fontFamily=Courier New;fontSize=25;fontColor=#FF00FF;strokeColor=#FF7AA7;" parent="1" source="xRK7ADfFjkM7JIY8LleF-133" target="xRK7ADfFjkM7JIY8LleF-123" edge="1">
          <mxGeometry relative="1" as="geometry">
            <mxPoint x="1511.7299999999996" y="606.9152108546009" as="sourcePoint" />
            <mxPoint x="1600" y="608.0119778335529" as="targetPoint" />
          </mxGeometry>
        </mxCell>
        <mxCell id="xRK7ADfFjkM7JIY8LleF-140" style="edgeStyle=none;orthogonalLoop=1;jettySize=auto;html=1;endArrow=none;strokeColor=#A50040;strokeWidth=6;fillColor=#d80073;fontFamily=Courier New;fontSize=25;fontColor=#FF00FF;" parent="1" source="xRK7ADfFjkM7JIY8LleF-1" target="xRK7ADfFjkM7JIY8LleF-141" edge="1">
          <mxGeometry relative="1" as="geometry">
            <mxPoint x="250.00000000000045" y="60" as="targetPoint" />
          </mxGeometry>
        </mxCell>
        <mxCell id="xRK7ADfFjkM7JIY8LleF-144" value="" style="group" parent="1" vertex="1" connectable="0">
          <mxGeometry x="-270" y="30" width="142.5" height="205" as="geometry" />
        </mxCell>
        <mxCell id="xRK7ADfFjkM7JIY8LleF-141" value="!" style="text;strokeColor=none;fillColor=none;spacingLeft=4;spacingRight=4;overflow=hidden;rotatable=0;points=[[0,0.5],[1,0.5]];portConstraint=eastwest;fontSize=150;fontColor=#4D4D4D;" parent="xRK7ADfFjkM7JIY8LleF-144" vertex="1">
          <mxGeometry x="41.25" width="60" height="165" as="geometry" />
        </mxCell>
        <mxCell id="xRK7ADfFjkM7JIY8LleF-143" value="TAREFAS" style="text;html=1;align=center;verticalAlign=middle;whiteSpace=wrap;rounded=0;fontSize=22;fontStyle=1;fontFamily=Tahoma;fontColor=#4D4D4D;" parent="xRK7ADfFjkM7JIY8LleF-144" vertex="1">
          <mxGeometry y="165" width="142.5" height="40" as="geometry" />
        </mxCell>
        <mxCell id="T6KQ2ea3Ygig5Y7dYEfh-1" value="NÃO" style="edgeStyle=none;orthogonalLoop=1;jettySize=auto;html=1;endArrow=open;endFill=1;endSize=12;strokeWidth=6;fillColor=#d80073;fontFamily=Courier New;fontSize=38;fontColor=#990099;strokeColor=#FF7AA7;" parent="1" source="xRK7ADfFjkM7JIY8LleF-105" target="xRK7ADfFjkM7JIY8LleF-123" edge="1">
          <mxGeometry relative="1" as="geometry">
            <mxPoint x="1654.0011029411764" y="1070" as="targetPoint" />
            <mxPoint x="1654.0033088390821" y="919.9989424209161" as="sourcePoint" />
          </mxGeometry>
        </mxCell>
        <mxCell id="T6KQ2ea3Ygig5Y7dYEfh-2" value="&lt;h1 style=&quot;font-size: 16px&quot;&gt;&lt;font color=&quot;#6666ff&quot;&gt;OBJETIVO&lt;/font&gt;&lt;/h1&gt;&lt;p style=&quot;font-size: 16px&quot;&gt;Uma descrição permite aos envolvidos entender e identificar possíveis tarefas ou requisitos envolvidos no cartão e melhor entendimento da tarefa&amp;nbsp;&lt;/p&gt;" style="text;html=1;strokeColor=none;fillColor=none;spacing=5;spacingTop=-20;whiteSpace=wrap;overflow=hidden;rounded=0;fontFamily=Tahoma;fontSize=16;fontColor=#666666;align=center;" parent="1" vertex="1">
          <mxGeometry x="654" y="-560" width="390" height="110" as="geometry" />
        </mxCell>
        <mxCell id="T6KQ2ea3Ygig5Y7dYEfh-5" value="" style="endArrow=none;html=1;fontFamily=Verdana;fontSize=22;fontColor=#003300;fillColor=#d80073;strokeColor=#A50040;strokeWidth=6;" parent="1" source="T6KQ2ea3Ygig5Y7dYEfh-2" target="xRK7ADfFjkM7JIY8LleF-27" edge="1">
          <mxGeometry width="50" height="50" relative="1" as="geometry">
            <mxPoint x="1215.7714285714283" y="-489.9999999999998" as="sourcePoint" />
            <mxPoint x="1212.5428571428574" y="-430" as="targetPoint" />
          </mxGeometry>
        </mxCell>
        <mxCell id="T6KQ2ea3Ygig5Y7dYEfh-6" value="" style="endArrow=none;html=1;fontFamily=Verdana;fontSize=22;fontColor=#003300;fillColor=#d80073;strokeColor=#A50040;strokeWidth=6;" parent="1" source="xRK7ADfFjkM7JIY8LleF-74" target="T6KQ2ea3Ygig5Y7dYEfh-7" edge="1">
          <mxGeometry width="50" height="50" relative="1" as="geometry">
            <mxPoint x="828.7322580645155" y="-330" as="sourcePoint" />
            <mxPoint x="520" y="-270" as="targetPoint" />
          </mxGeometry>
        </mxCell>
        <mxCell id="T6KQ2ea3Ygig5Y7dYEfh-7" value="&lt;h1 style=&quot;font-size: 16px&quot;&gt;&lt;font color=&quot;#6666ff&quot;&gt;OBJETIVO&lt;/font&gt;&lt;/h1&gt;&lt;p style=&quot;font-size: 16px&quot;&gt;O detalhamento do template deve melhorar o entendimento do que cada área do template informa, não deve servir para consulta diária, mas como guia para os leitores e para delimitação das informações aprensentadas&lt;/p&gt;" style="text;html=1;strokeColor=none;fillColor=none;spacing=5;spacingTop=-20;whiteSpace=wrap;overflow=hidden;rounded=0;fontFamily=Tahoma;fontSize=16;fontColor=#666666;align=center;" parent="1" vertex="1">
          <mxGeometry x="460" y="-330" width="390" height="130" as="geometry" />
        </mxCell>
        <mxCell id="T6KQ2ea3Ygig5Y7dYEfh-8" value="[adicionar imagem do template]" style="rounded=1;whiteSpace=wrap;html=1;fontSize=18;fontColor=#FF3D3D;" parent="1" vertex="1">
          <mxGeometry x="2600" y="5" width="120" height="60" as="geometry" />
        </mxCell>
        <mxCell id="T6KQ2ea3Ygig5Y7dYEfh-13" value="Trabalhando com:" style="rhombus;whiteSpace=wrap;html=1;strokeWidth=2;fillWeight=-1;hachureGap=8;fillStyle=cross-hatch;sketch=1;fontFamily=Comic Sans MS;fontSize=38;fontStyle=1;strokeColor=#006600;fillColor=#80FF00;fontColor=#CC6600;" parent="1" vertex="1">
          <mxGeometry x="1165.1099999999997" y="1190" width="367.79" height="230" as="geometry" />
        </mxCell>
        <mxCell id="T6KQ2ea3Ygig5Y7dYEfh-15" value="" style="edgeStyle=segmentEdgeStyle;endArrow=classic;html=1;fontSize=39;fontColor=#CC6600;strokeColor=#FF7AA7;strokeWidth=6;" parent="1" source="T6KQ2ea3Ygig5Y7dYEfh-13" target="T6KQ2ea3Ygig5Y7dYEfh-11" edge="1">
          <mxGeometry width="50" height="50" relative="1" as="geometry">
            <mxPoint x="1340" y="1490" as="sourcePoint" />
            <mxPoint x="1390" y="1440" as="targetPoint" />
          </mxGeometry>
        </mxCell>
        <mxCell id="T6KQ2ea3Ygig5Y7dYEfh-19" value="" style="group" parent="1" vertex="1" connectable="0">
          <mxGeometry x="-180" y="1470" width="300" height="270" as="geometry" />
        </mxCell>
        <mxCell id="T6KQ2ea3Ygig5Y7dYEfh-11" value="" style="shape=image;verticalLabelPosition=bottom;labelBackgroundColor=#ffffff;verticalAlign=top;aspect=fixed;imageAspect=0;image=https://image.flaticon.com/icons/png/512/25/25231.png;" parent="T6KQ2ea3Ygig5Y7dYEfh-19" vertex="1">
          <mxGeometry x="50" width="200" height="200" as="geometry" />
        </mxCell>
        <mxCell id="T6KQ2ea3Ygig5Y7dYEfh-17" value="&amp;nbsp;GITHUB" style="text;strokeColor=none;fillColor=none;html=1;fontSize=30;fontStyle=1;verticalAlign=middle;align=center;" parent="T6KQ2ea3Ygig5Y7dYEfh-19" vertex="1">
          <mxGeometry y="230" width="300" height="40" as="geometry" />
        </mxCell>
      </root>
    </mxGraphModel>
  </diagram>
</mxfile>
